<svg width="16" height="19" viewBox="0 0 16 19" fill="none" xmlns="http://www.w3.org/2000/svg">
<path fill-rule="evenodd" clip-rule="evenodd" d="M9.93322 0.736807C10.2382 0.817789 10.4936 1.02582 10.6348 1.30802C11.1667 2.37186 11.5637 3.01752 11.9631 3.54103C12.3673 4.07093 12.795 4.50473 13.4455 5.15526C14.9488 6.65856 15.7008 8.63109 15.7008 10.6C15.7008 12.5689 14.9488 14.5414 13.4455 16.0447C10.4385 19.0517 5.5631 19.0517 2.55606 16.0447C1.05276 14.5414 0.300784 12.5689 0.300781 10.6C0.300778 8.63109 1.05275 6.65856 2.55606 5.15526C2.87066 4.84066 3.34379 4.74655 3.75483 4.91681C4.16587 5.08707 4.43388 5.48817 4.43388 5.93308C4.43388 7.16487 4.5108 8.10346 4.87107 8.85209C5.06918 9.26375 5.37822 9.66622 5.91083 10.0254C6.03803 8.85851 6.27105 7.43688 6.58591 6.0875C6.8338 5.0251 7.14211 3.96445 7.50908 3.07998C7.69262 2.63758 7.90019 2.21635 8.13592 1.85265C8.36537 1.49863 8.66018 1.13839 9.04071 0.884701C9.30324 0.709686 9.62827 0.655825 9.93322 0.736807ZM10.3342 15.1334C9.0455 16.4221 6.95606 16.4221 5.66733 15.1334C5.02296 14.489 4.70078 13.6445 4.70078 12.8C4.70078 12.8 5.66733 13.3499 7.45083 13.3499C7.45083 12.2499 8.00083 8.94995 8.82583 8.39995C9.37583 9.49995 9.68987 9.82214 10.3342 10.4665C10.9786 11.1109 11.3008 11.9554 11.3008 12.8C11.3008 13.6445 10.9786 14.489 10.3342 15.1334Z" fill="#FF885C"/>
</svg>
