<svg width="24" height="24" viewBox="0 0 24 24" fill="none" xmlns="http://www.w3.org/2000/svg">
<path d="M19.5949 21.6112L18.4942 13.3557H18.5249C18.8481 13.3557 19.1101 13.0937 19.1101 12.7704V0.870088C19.1101 0.664449 19.0026 0.474666 18.8269 0.368794C18.6512 0.262823 18.4331 0.256569 18.2518 0.352298C15.9697 1.55649 14.541 3.92419 14.541 6.50531V11.5231C14.541 12.5351 15.3617 13.3556 16.3737 13.3556H16.5125L15.4118 21.6112C15.3318 22.2137 15.5154 22.8225 15.9155 23.2798C16.3164 23.7373 16.8954 24 17.5034 24C18.1113 24 18.6903 23.7373 19.0913 23.2798C19.4914 22.8226 19.6749 22.2138 19.5949 21.6112Z" fill="#FF885C"/>
<path d="M10.4242 0C9.98016 0 9.62083 0.359326 9.62083 0.803301V5.29072H8.81748V0.803301C8.81748 0.359326 8.45816 0 8.01413 0C7.57011 0 7.21083 0.359326 7.21083 0.803301V5.29072H6.40748V0.803301C6.40743 0.359326 6.04811 0 5.60413 0C5.16006 0 4.80078 0.359326 4.80078 0.803301V5.29072V6.02508V8.05384C4.80078 9.24552 5.76648 10.2112 6.95817 10.2112H7.13623L5.87009 21.6049C5.80263 22.2144 5.99793 22.824 6.40664 23.2814C6.8162 23.7388 7.40066 24 8.01418 24C8.6277 24 9.21212 23.7388 9.62172 23.2814C10.0305 22.824 10.2258 22.2144 10.1583 21.6049L8.89209 10.2113H9.0702C10.2618 10.2113 11.2276 9.24557 11.2276 8.05389V6.02513V5.29077V0.803301C11.2275 0.359326 10.8682 0 10.4242 0Z" fill="#FF885C"/>
</svg>
