<svg width="24" height="18" viewBox="0 0 24 18" fill="none" xmlns="http://www.w3.org/2000/svg">
	<path d="M14.9881 10.9537C14.9881 7.7914 15.7576 5.31563 17.2964 3.52642C18.8564 1.7372 21.0382 0.56173 23.8419 0V3.24555C21.7128 3.8905 20.2793 5.05557 19.5415 6.74076C19.1199 7.63537 18.9513 8.49877 19.0356 9.33096H24V17.5385H14.9881V10.9537ZM0 10.9537C0 7.83301 0.748353 5.36764 2.24506 3.55762C3.76285 1.7476 5.96574 0.56173 8.85375 0V3.24555C6.70356 3.91131 5.25955 5.05557 4.52174 6.67835C4.14229 7.53134 3.98419 8.41555 4.04743 9.33096H9.01186V17.5385H0V10.9537Z" fill="#FF885C"></path>
</svg>
