<svg width="18" height="18" viewBox="0 0 18 18" fill="none" xmlns="http://www.w3.org/2000/svg">
<path fill-rule="evenodd" clip-rule="evenodd" d="M0.666992 9.00008C0.666992 4.39771 4.39795 0.666748 9.00033 0.666748C11.2105 0.666748 13.3301 1.54472 14.8929 3.10752C16.4557 4.67033 17.3337 6.78994 17.3337 9.00008C17.3337 13.6025 13.6027 17.3334 9.00033 17.3334C4.39795 17.3334 0.666992 13.6025 0.666992 9.00008ZM1.91699 9.00008C1.91699 12.9121 5.08831 16.0834 9.00033 16.0834C10.8789 16.0834 12.6806 15.3371 14.009 14.0088C15.3374 12.6804 16.0837 10.8787 16.0837 9.00008C16.0837 5.08806 12.9123 1.91675 9.00033 1.91675C5.08831 1.91675 1.91699 5.08806 1.91699 9.00008Z" fill="#FF885C"/>
<path d="M9.00033 4.83342C6.69914 4.83342 4.83366 6.69889 4.83366 9.00008C4.83366 11.3013 6.69914 13.1667 9.00033 13.1667C11.3015 13.1667 13.167 11.3013 13.167 9.00008C13.167 6.69889 11.3015 4.83342 9.00033 4.83342Z" fill="#FF885C"/>
</svg>
