<svg width="14" height="13" viewBox="0 0 14 13" fill="none" xmlns="http://www.w3.org/2000/svg">
<path fill-rule="evenodd" clip-rule="evenodd" d="M5.16578 1.13434C5.4782 1.44676 5.4782 1.95329 5.16578 2.26571L3.33147 4.10002H7.8001C10.8929 4.10002 13.4001 6.60723 13.4001 9.70003V11.3C13.4001 11.7419 13.0419 12.1 12.6001 12.1C12.1583 12.1 11.8001 11.7419 11.8001 11.3V9.70003C11.8001 7.49089 10.0092 5.70002 7.8001 5.70002H3.33147L5.16578 7.53434C5.4782 7.84676 5.4782 8.35329 5.16578 8.66571C4.85336 8.97813 4.34683 8.97813 4.03441 8.66571L0.834412 5.46571C0.521993 5.15329 0.521993 4.64676 0.834412 4.33434L4.03441 1.13434C4.34683 0.82192 4.85336 0.82192 5.16578 1.13434Z" fill="#667085"/>
</svg>
