<svg width="76" height="11" viewBox="0 0 76 11" fill="none" xmlns="http://www.w3.org/2000/svg">
<g clip-path="url(#clip0_130_8381)">
<path d="M75.6812 3.93099L71.9922 3.41399L70.3392 0.180985C70.3019 0.125088 70.2514 0.0792546 70.1922 0.0475543C70.133 0.015854 70.0669 -0.000732422 69.9997 -0.000732422C69.9325 -0.000732422 69.8664 0.015854 69.8071 0.0475543C69.7479 0.0792546 69.6974 0.125088 69.6602 0.180985L68.0072 3.41399L64.3182 3.93099C64.2526 3.93503 64.1897 3.95814 64.1371 3.99745C64.0846 4.03677 64.0446 4.09059 64.0222 4.15231C63.9998 4.21402 63.9959 4.28094 64.011 4.34484C64.0261 4.40873 64.0595 4.46683 64.1072 4.51199L66.7872 7.03399L66.1542 10.599C66.1477 10.6664 66.1599 10.7343 66.1894 10.7952C66.2188 10.8562 66.2645 10.9079 66.3213 10.9447C66.3781 10.9816 66.444 11.0021 66.5117 11.0041C66.5794 11.0061 66.6463 10.9894 66.7052 10.956L70.0002 9.28098L73.2952 10.953C73.3541 10.9864 73.421 11.0031 73.4887 11.0011C73.5564 10.9991 73.6222 10.9786 73.6791 10.9417C73.7359 10.9049 73.7815 10.8532 73.811 10.7922C73.8405 10.7313 73.8526 10.6634 73.8462 10.596L73.2132 7.03399L75.8932 4.51199C75.9404 4.46664 75.9734 4.40856 75.9883 4.3448C76.0031 4.28104 75.9991 4.21435 75.9768 4.15282C75.9544 4.09129 75.9147 4.03757 75.8624 3.99819C75.8101 3.95881 75.7475 3.93546 75.6822 3.93099H75.6812Z" fill="#FFC107"/>
</g>
<g clip-path="url(#clip1_130_8381)">
<path d="M59.6812 3.93099L55.9922 3.41399L54.3392 0.180985C54.3019 0.125088 54.2514 0.0792546 54.1922 0.0475543C54.133 0.015854 54.0669 -0.000732422 53.9997 -0.000732422C53.9325 -0.000732422 53.8664 0.015854 53.8071 0.0475543C53.7479 0.0792546 53.6974 0.125088 53.6602 0.180985L52.0072 3.41399L48.3182 3.93099C48.2526 3.93503 48.1897 3.95814 48.1371 3.99745C48.0846 4.03677 48.0446 4.09059 48.0222 4.15231C47.9998 4.21402 47.9959 4.28094 48.011 4.34484C48.0261 4.40873 48.0595 4.46683 48.1072 4.51199L50.7872 7.03399L50.1542 10.599C50.1477 10.6664 50.1599 10.7343 50.1894 10.7952C50.2188 10.8562 50.2645 10.9079 50.3213 10.9447C50.3781 10.9816 50.444 11.0021 50.5117 11.0041C50.5794 11.0061 50.6463 10.9894 50.7052 10.956L54.0002 9.28098L57.2952 10.953C57.3541 10.9864 57.421 11.0031 57.4887 11.0011C57.5564 10.9991 57.6222 10.9786 57.6791 10.9417C57.7359 10.9049 57.7815 10.8532 57.811 10.7922C57.8405 10.7313 57.8526 10.6634 57.8462 10.596L57.2132 7.03399L59.8932 4.51199C59.9404 4.46664 59.9734 4.40856 59.9883 4.3448C60.0031 4.28104 59.9991 4.21435 59.9768 4.15282C59.9544 4.09129 59.9147 4.03757 59.8624 3.99819C59.8101 3.95881 59.7475 3.93546 59.6822 3.93099H59.6812Z" fill="#FFC107"/>
</g>
<g clip-path="url(#clip2_130_8381)">
<path d="M43.6812 3.93099L39.9922 3.41399L38.3392 0.180985C38.3019 0.125088 38.2514 0.0792546 38.1922 0.0475543C38.133 0.015854 38.0669 -0.000732422 37.9997 -0.000732422C37.9325 -0.000732422 37.8664 0.015854 37.8071 0.0475543C37.7479 0.0792546 37.6974 0.125088 37.6602 0.180985L36.0072 3.41399L32.3182 3.93099C32.2526 3.93503 32.1897 3.95814 32.1371 3.99745C32.0846 4.03677 32.0446 4.09059 32.0222 4.15231C31.9998 4.21402 31.9959 4.28094 32.011 4.34484C32.0261 4.40873 32.0595 4.46683 32.1072 4.51199L34.7872 7.03399L34.1542 10.599C34.1477 10.6664 34.1599 10.7343 34.1894 10.7952C34.2188 10.8562 34.2645 10.9079 34.3213 10.9447C34.3781 10.9816 34.444 11.0021 34.5117 11.0041C34.5794 11.0061 34.6463 10.9894 34.7052 10.956L38.0002 9.28098L41.2952 10.953C41.3541 10.9864 41.421 11.0031 41.4887 11.0011C41.5564 10.9991 41.6222 10.9786 41.6791 10.9417C41.7359 10.9049 41.7815 10.8532 41.811 10.7922C41.8405 10.7313 41.8526 10.6634 41.8462 10.596L41.2132 7.03399L43.8932 4.51199C43.9404 4.46664 43.9734 4.40856 43.9883 4.3448C44.0031 4.28104 43.9991 4.21435 43.9768 4.15282C43.9544 4.09129 43.9147 4.03757 43.8624 3.99819C43.8101 3.95881 43.7475 3.93546 43.6822 3.93099H43.6812Z" fill="#FFC107"/>
</g>
<g clip-path="url(#clip3_130_8381)">
<path d="M27.6812 3.93099L23.9922 3.41399L22.3392 0.180985C22.3019 0.125088 22.2514 0.0792546 22.1922 0.0475543C22.133 0.015854 22.0669 -0.000732422 21.9997 -0.000732422C21.9325 -0.000732422 21.8664 0.015854 21.8071 0.0475543C21.7479 0.0792546 21.6974 0.125088 21.6602 0.180985L20.0072 3.41399L16.3182 3.93099C16.2526 3.93503 16.1897 3.95814 16.1371 3.99745C16.0846 4.03677 16.0446 4.09059 16.0222 4.15231C15.9998 4.21402 15.9959 4.28094 16.011 4.34484C16.0261 4.40873 16.0595 4.46683 16.1072 4.51199L18.7872 7.03399L18.1542 10.599C18.1477 10.6664 18.1599 10.7343 18.1894 10.7952C18.2188 10.8562 18.2645 10.9079 18.3213 10.9447C18.3781 10.9816 18.444 11.0021 18.5117 11.0041C18.5794 11.0061 18.6463 10.9894 18.7052 10.956L22.0002 9.28098L25.2952 10.953C25.3541 10.9864 25.421 11.0031 25.4887 11.0011C25.5564 10.9991 25.6222 10.9786 25.6791 10.9417C25.7359 10.9049 25.7815 10.8532 25.811 10.7922C25.8405 10.7313 25.8526 10.6634 25.8462 10.596L25.2132 7.03399L27.8932 4.51199C27.9404 4.46664 27.9734 4.40856 27.9883 4.3448C28.0031 4.28104 27.9991 4.21435 27.9768 4.15282C27.9544 4.09129 27.9147 4.03757 27.8624 3.99819C27.8101 3.95881 27.7475 3.93546 27.6822 3.93099H27.6812Z" fill="#FFC107"/>
</g>
<g clip-path="url(#clip4_130_8381)">
<path d="M11.6812 3.93099L7.99218 3.41399L6.33918 0.180985C6.30192 0.125088 6.25144 0.0792546 6.19221 0.0475543C6.13299 0.015854 6.06685 -0.000732422 5.99968 -0.000732422C5.9325 -0.000732422 5.86637 0.015854 5.80714 0.0475543C5.74792 0.0792546 5.69743 0.125088 5.66018 0.180985L4.00718 3.41399L0.318178 3.93099C0.252646 3.93503 0.189723 3.95814 0.137141 3.99745C0.0845588 4.03677 0.0446073 4.09059 0.0221951 4.15231C-0.000217171 4.21402 -0.00411396 4.28094 0.0109835 4.34484C0.0260809 4.40873 0.059515 4.46683 0.107178 4.51199L2.78718 7.03399L2.15418 10.599C2.14773 10.6664 2.1599 10.7343 2.18937 10.7952C2.21884 10.8562 2.26447 10.9079 2.32131 10.9447C2.37814 10.9816 2.44398 11.0021 2.51167 11.0041C2.57936 11.0061 2.64629 10.9894 2.70518 10.956L6.00018 9.28098L9.29518 10.953C9.35407 10.9864 9.421 11.0031 9.48869 11.0011C9.55637 10.9991 9.62222 10.9786 9.67905 10.9417C9.73588 10.9049 9.78152 10.8532 9.81099 10.7922C9.84046 10.7313 9.85263 10.6634 9.84618 10.596L9.21318 7.03399L11.8932 4.51199C11.9404 4.46664 11.9734 4.40856 11.9883 4.3448C12.0031 4.28104 11.9991 4.21435 11.9768 4.15282C11.9544 4.09129 11.9147 4.03757 11.8624 3.99819C11.8101 3.95881 11.7475 3.93546 11.6822 3.93099H11.6812Z" fill="#FFC107"/>
</g>
<defs>
<clipPath id="clip0_130_8381">
<rect width="12" height="11" fill="white" transform="translate(64)"/>
</clipPath>
<clipPath id="clip1_130_8381">
<rect width="12" height="11" fill="white" transform="translate(48)"/>
</clipPath>
<clipPath id="clip2_130_8381">
<rect width="12" height="11" fill="white" transform="translate(32)"/>
</clipPath>
<clipPath id="clip3_130_8381">
<rect width="12" height="11" fill="white" transform="translate(16)"/>
</clipPath>
<clipPath id="clip4_130_8381">
<rect width="12" height="11" fill="white"/>
</clipPath>
</defs>
</svg>
